<svg width="18452" height="4531" viewBox="0 0 18452 4531" fill="none" xmlns="http://www.w3.org/2000/svg">
<path d="M2122.53 1297.43C2859.39 2040.98 1733.76 3166.22 990.492 2429.4C253.629 1685.85 1378.94 560.611 2122.53 1297.43Z" fill="#15BDE8"/>
<path d="M2497.52 1075.52C2176.33 1080.01 2176.33 575.664 2497.52 580.147C2819.04 575.664 2819.04 1080.01 2497.52 1075.52Z" fill="#15BDE8"/>
<path d="M5789 847.5C6219.5 847.5 6569.5 1197.5 6569.5 1631.5V3052.5H6310.5V1631.5C6310.5 1344.5 6076 1110 5789 1110C5502 1110 5267.5 1341 5267.5 1628C5267.5 1628 5267.5 1628 5267.5 1631.5V3052.5H5005V1631.5C5005 1628 5005 1628 5005 1628C5005 1341 4770.5 1110 4483.5 1110C4196.5 1110 3965.5 1341 3962 1624.5V3052.5H3703V1631.5C3703 1628 3703 1628 3703 1624.5V977H3962V1047C4102 924.5 4284 847.5 4483.5 847.5C4756.5 847.5 4994.5 987.5 5134.5 1197.5C5274.5 987.5 5516 847.5 5789 847.5ZM10011.1 2804C10480.1 2804 10861.6 2422.5 10861.6 1957C10861.6 1488 10480.1 1110 10011.1 1110C9545.65 1110 9164.15 1488 9164.15 1957C9164.15 2422.5 9545.65 2804 10011.1 2804ZM10011.1 847.5C10623.6 847.5 11120.6 1344.5 11120.6 1957C11120.6 2566 10623.6 3063 10011.1 3063C9671.65 3063 9367.15 2909 9164.15 2667.5V4029H8905.15V977H9164.15V1243C9367.15 1001.5 9671.65 847.5 10011.1 847.5ZM14168.4 847.5V1110H13818.4V3063H13555.9V0.499791H13818.4V847.5H14168.4ZM15857.1 847.5H16119.6V3063H15857.1V2863.5C15720.6 2989.5 15535.1 3063 15335.6 3063C14905.1 3063 14555.1 2713 14555.1 2282.5V847.5H14814.1V2282.5C14814.1 2569.5 15048.6 2804 15335.6 2804C15622.6 2804 15857.1 2569.5 15857.1 2282.5V847.5ZM17283.8 847.5C17714.3 847.5 18067.8 1197.5 18067.8 1631.5V3052.5H17805.3V1631.5C17805.3 1344.5 17570.8 1110 17283.8 1110C16996.8 1110 16762.3 1344.5 16762.3 1631.5V3052.5H16503.3V977H16762.3V1047C16902.3 924.5 17084.3 847.5 17283.8 847.5Z" fill="#5C5D60"/>
<path d="M8258.91 847.5H8521.41V3063H8258.91V2863.5C8122.41 2989.5 7936.91 3063 7737.41 3063C7306.91 3063 6956.91 2713 6956.91 2282.5V847.5H7215.91V2282.5C7215.91 2569.5 7450.41 2804 7737.41 2804C8024.41 2804 8258.91 2569.5 8258.91 2282.5V847.5ZM12811.6 847.5H13074.1V3063H12811.6V2863.5C12675.1 2989.5 12489.6 3063 12290.1 3063C11859.6 3063 11509.6 2713 11509.6 2282.5V847.5H11768.6V2282.5C11768.6 2569.5 12003.1 2804 12290.1 2804C12577.1 2804 12811.6 2569.5 12811.6 2282.5V847.5Z" fill="#B5B7B9"/>
<path d="M11828.9 640.095C11562.4 643.815 11562.4 225.305 11828.9 229.025C12095.7 225.305 12095.7 643.815 11828.9 640.095Z" fill="#B5B7B9"/>
<path d="M12742.9 640.095C12476.4 643.815 12476.4 225.305 12742.9 229.025C13009.7 225.305 13009.7 643.815 12742.9 640.095Z" fill="#B5B7B9"/>
<path d="M7278.9 640.095C7012.37 643.815 7012.37 225.305 7278.9 229.025C7545.7 225.305 7545.7 643.815 7278.9 640.095Z" fill="#B5B7B9"/>
<path d="M8192.9 640.095C7926.37 643.815 7926.37 225.305 8192.9 229.025C8459.7 225.305 8459.7 643.815 8192.9 640.095Z" fill="#B5B7B9"/>
<path d="M11773.2 3595.6H11641.2V3476.8H12041.6V3595.6H11909.6V4271H11773.2V3595.6ZM12231.5 4271V3476.8H12596.7V3595.6H12367.9V3800.2H12543.9V3919H12367.9V4152.2H12612.1V4271H12231.5ZM13105.3 3741.9V3680.3C13105.3 3646.57 13098.7 3622.37 13085.5 3607.7C13072.3 3592.3 13056.9 3584.6 13039.3 3584.6C13011.4 3584.6 12992.4 3591.93 12982.1 3606.6C12971.8 3620.53 12966.7 3642.53 12966.7 3672.6V4075.2C12966.7 4105.27 12971.8 4127.63 12982.1 4142.3C12992.4 4156.23 13011.4 4163.2 13039.3 4163.2C13064.2 4163.2 13081.5 4156.23 13091 4142.3C13100.5 4128.37 13105.3 4108.57 13105.3 4082.9V3987.2H13241.7V4078.5C13241.7 4106.37 13237.3 4132.77 13228.5 4157.7C13220.4 4182.63 13208 4204.27 13191.1 4222.6C13175 4240.93 13154.1 4255.6 13128.4 4266.6C13102.7 4276.87 13073 4282 13039.3 4282C13003.4 4282 12972.2 4276.87 12945.8 4266.6C12920.1 4255.6 12898.5 4240.93 12880.9 4222.6C12864 4204.27 12851.2 4182.63 12842.4 4157.7C12834.3 4132.77 12830.3 4106.37 12830.3 4078.5V3669.3C12830.3 3641.43 12834.3 3615.03 12842.4 3590.1C12851.2 3565.17 12864 3543.53 12880.9 3525.2C12898.5 3506.87 12920.1 3492.57 12945.8 3482.3C12972.2 3471.3 13003.4 3465.8 13039.3 3465.8C13073 3465.8 13102.7 3471.67 13128.4 3483.4C13154.1 3495.13 13175 3510.9 13191.1 3530.7C13208 3550.5 13220.4 3573.6 13228.5 3600C13237.3 3626.4 13241.7 3654.27 13241.7 3683.6V3741.9H13105.3ZM13490.3 4271V3476.8H13616.8L13782.9 3931.1H13785.1V3476.8H13908.3V4271H13789.5L13615.7 3774.9H13613.5V4271H13490.3ZM14286.7 4075.2C14286.7 4105.27 14291.8 4127.63 14302.1 4142.3C14312.4 4156.23 14331.4 4163.2 14359.3 4163.2C14387.2 4163.2 14406.2 4156.23 14416.5 4142.3C14426.8 4127.63 14431.9 4105.27 14431.9 4075.2V3672.6C14431.9 3642.53 14426.8 3620.53 14416.5 3606.6C14406.2 3591.93 14387.2 3584.6 14359.3 3584.6C14331.4 3584.6 14312.4 3591.93 14302.1 3606.6C14291.8 3620.53 14286.7 3642.53 14286.7 3672.6V4075.2ZM14150.3 3669.3C14150.3 3641.43 14154.3 3615.03 14162.4 3590.1C14171.2 3565.17 14184 3543.53 14200.9 3525.2C14218.5 3506.87 14240.1 3492.57 14265.8 3482.3C14292.2 3471.3 14323.4 3465.8 14359.3 3465.8C14395.2 3465.8 14426 3471.3 14451.7 3482.3C14478.1 3492.57 14499.7 3506.87 14516.6 3525.2C14534.2 3543.53 14547 3565.17 14555.1 3590.1C14563.9 3615.03 14568.3 3641.43 14568.3 3669.3V4078.5C14568.3 4106.37 14563.9 4132.77 14555.1 4157.7C14547 4182.63 14534.2 4204.27 14516.6 4222.6C14499.7 4240.93 14478.1 4255.6 14451.7 4266.6C14426 4276.87 14395.2 4282 14359.3 4282C14323.4 4282 14292.2 4276.87 14265.8 4266.6C14240.1 4255.6 14218.5 4240.93 14200.9 4222.6C14184 4204.27 14171.2 4182.63 14162.4 4157.7C14154.3 4132.77 14150.3 4106.37 14150.3 4078.5V3669.3ZM14803.7 4271V3476.8H14940.1V4152.2H15154.6V4271H14803.7ZM15484.2 4075.2C15484.2 4105.27 15489.4 4127.63 15499.6 4142.3C15509.9 4156.23 15529 4163.2 15556.8 4163.2C15584.7 4163.2 15603.8 4156.23 15614 4142.3C15624.3 4127.63 15629.4 4105.27 15629.4 4075.2V3672.6C15629.4 3642.53 15624.3 3620.53 15614 3606.6C15603.8 3591.93 15584.7 3584.6 15556.8 3584.6C15529 3584.6 15509.9 3591.93 15499.6 3606.6C15489.4 3620.53 15484.2 3642.53 15484.2 3672.6V4075.2ZM15347.8 3669.3C15347.8 3641.43 15351.9 3615.03 15359.9 3590.1C15368.7 3565.17 15381.6 3543.53 15398.4 3525.2C15416 3506.87 15437.7 3492.57 15463.3 3482.3C15489.7 3471.3 15520.9 3465.8 15556.8 3465.8C15592.8 3465.8 15623.6 3471.3 15649.2 3482.3C15675.6 3492.57 15697.3 3506.87 15714.1 3525.2C15731.7 3543.53 15744.6 3565.17 15752.6 3590.1C15761.4 3615.03 15765.8 3641.43 15765.8 3669.3V4078.5C15765.8 4106.37 15761.4 4132.77 15752.6 4157.7C15744.6 4182.63 15731.7 4204.27 15714.1 4222.6C15697.3 4240.93 15675.6 4255.6 15649.2 4266.6C15623.6 4276.87 15592.8 4282 15556.8 4282C15520.9 4282 15489.7 4276.87 15463.3 4266.6C15437.7 4255.6 15416 4240.93 15398.4 4222.6C15381.6 4204.27 15368.7 4182.63 15359.9 4157.7C15351.9 4132.77 15347.8 4106.37 15347.8 4078.5V3669.3ZM16195.9 3868.4H16419.2V4271H16353.2L16327.9 4211.6C16307.4 4235.8 16287.2 4253.77 16267.4 4265.5C16248.4 4276.5 16222.7 4282 16190.4 4282C16136.2 4282 16092.2 4264.03 16058.4 4228.1C16024.7 4192.17 16007.8 4142.3 16007.8 4078.5V3669.3C16007.8 3641.43 16011.9 3615.03 16019.9 3590.1C16028.7 3565.17 16041.2 3543.53 16057.3 3525.2C16074.2 3506.87 16095.1 3492.57 16120 3482.3C16145 3471.3 16174.3 3465.8 16208 3465.8C16241.8 3465.8 16271.5 3471.67 16297.1 3483.4C16322.8 3495.13 16344.1 3510.9 16360.9 3530.7C16378.5 3550.5 16391.4 3573.6 16399.4 3600C16408.2 3626.4 16412.6 3654.27 16412.6 3683.6V3734.2H16282.8C16282.8 3704.87 16281.4 3680.67 16278.4 3661.6C16275.5 3641.8 16270.7 3626.4 16264.1 3615.4C16257.5 3603.67 16249.1 3595.6 16238.8 3591.2C16229.3 3586.8 16217.9 3584.6 16204.7 3584.6C16187.9 3584.6 16173.6 3590.83 16161.8 3603.3C16150.1 3615.03 16144.2 3637.77 16144.2 3671.5V4079.6C16144.2 4105.27 16149 4125.8 16158.5 4141.2C16168.1 4155.87 16184.6 4163.2 16208 4163.2C16235.9 4163.2 16255.3 4154.77 16266.3 4137.9C16277.3 4121.03 16282.8 4092.8 16282.8 4053.2V3976.2H16195.9V3868.4ZM16767.9 3435H16676.6L16763.5 3276.6H16912L16767.9 3435ZM16686.5 4271V3476.8H16822.9V4271H16686.5ZM17207.2 3976.2H17317.2L17263.3 3635.2H17261.1L17207.2 3976.2ZM17163.2 4271H17031.2L17177.5 3476.8H17346.9L17493.2 4271H17361.2L17337 4095H17187.4L17163.2 4271ZM17931.4 3672.6C17929.9 3655.73 17926.6 3641.8 17921.5 3630.8C17917.1 3619.07 17911.2 3609.9 17903.9 3603.3C17897.3 3596.7 17889.9 3591.93 17881.9 3589C17873.8 3586.07 17866.1 3584.6 17858.8 3584.6C17836.8 3584.6 17819.9 3591.57 17808.2 3605.5C17796.4 3618.7 17790.6 3637.77 17790.6 3662.7C17790.6 3685.43 17797.2 3706.33 17810.4 3725.4C17824.3 3744.47 17841.5 3763.53 17862.1 3782.6C17882.6 3801.67 17905 3821.1 17929.2 3840.9C17953.4 3859.97 17975.7 3881.23 17996.3 3904.7C18016.8 3928.17 18033.7 3954.2 18046.9 3982.8C18060.8 4010.67 18067.8 4042.57 18067.8 4078.5C18067.8 4111.5 18062.3 4140.83 18051.3 4166.5C18041 4191.43 18026.3 4212.7 18007.3 4230.3C17988.9 4247.17 17966.2 4260 17939.1 4268.8C17912.7 4277.6 17883.7 4282 17852.2 4282C17820.6 4282 17792.4 4276.13 17767.5 4264.4C17742.5 4252.67 17721.3 4236.9 17703.7 4217.1C17686.8 4196.57 17673.6 4173.1 17664.1 4146.7C17654.5 4120.3 17649 4092.07 17647.6 4062L17777.4 4043.3C17780.3 4083.63 17789.1 4113.7 17803.8 4133.5C17818.4 4153.3 17836.8 4163.2 17858.8 4163.2C17882.2 4163.2 17901.3 4156.97 17916 4144.5C17930.6 4132.03 17938 4114.07 17938 4090.6C17938 4064.2 17931 4040.73 17917.1 4020.2C17903.9 3999.67 17887 3979.87 17866.5 3960.8C17845.9 3941.73 17823.6 3922.67 17799.4 3903.6C17775.2 3884.53 17752.8 3863.63 17732.3 3840.9C17711.7 3818.17 17694.5 3792.5 17680.6 3763.9C17667.4 3735.3 17660.8 3701.93 17660.8 3663.8C17660.8 3600 17679.1 3551.23 17715.8 3517.5C17752.4 3483.03 17804.5 3465.8 17872 3465.8C17899.8 3465.8 17924.8 3470.57 17946.8 3480.1C17968.8 3489.63 17987.5 3503.2 18002.9 3520.8C18019 3537.67 18031.8 3557.83 18041.4 3581.3C18051.6 3604.77 18058.2 3630.43 18061.2 3658.3L17931.4 3672.6Z" fill="#5C5D60"/>
<path d="M2122.53 1297.43C2859.39 2040.98 1733.76 3166.22 990.492 2429.4C253.629 1685.85 1378.94 560.611 2122.53 1297.43Z" fill="#15BDE8"/>
<path d="M2497.52 1075.52C2176.33 1080.01 2176.33 575.664 2497.52 580.147C2819.04 575.664 2819.04 1080.01 2497.52 1075.52Z" fill="#15BDE8"/>
<path d="M3113.02 1863.25C3113.02 2721.76 2414.58 3419.83 1556.35 3419.83C698.115 3419.83 0 2721.76 0 1863.25C0 1005.07 698.115 307 1556.35 307C1574.6 307 1592.53 307.32 1610.47 307.961C1613.67 307.961 1617.19 308.281 1620.39 308.281C1705.26 312.124 1772.83 382.251 1772.83 468.389C1772.83 556.769 1701.09 628.498 1612.71 628.498C1594.14 627.537 1575.24 627.217 1556.35 627.217C874.885 627.217 320.236 1181.83 320.236 1863.25C320.236 2545 874.885 3099.61 1556.35 3099.61C2238.13 3099.61 2792.78 2545 2792.78 1863.25C2792.78 1768.79 2782.21 1676.89 2762.04 1588.51C2761.08 1584.99 2761.08 1582.74 2760.44 1580.18C2758.51 1570.26 2757.23 1560.65 2757.23 1550.08C2757.23 1461.7 2828.97 1389.97 2917.35 1389.97C2989.08 1389.97 3050.25 1437.37 3070.42 1502.37C3071.7 1505.57 3072.34 1509.09 3072.99 1512.3C3073.95 1515.82 3074.59 1519.34 3075.23 1522.86C3100.21 1632.38 3113.02 1746.38 3113.02 1863.25Z" fill="#15BDE8"/>
</svg>
